<svg width="29" height="26" viewBox="0 0 29 26" fill="none" xmlns="http://www.w3.org/2000/svg">
<path d="M14.0833 6.83333C14.0833 5.55145 13.5741 4.32208 12.6677 3.41565C11.7613 2.50922 10.5319 2 9.25 2H2V20.125H10.4583C11.4197 20.125 12.3418 20.5069 13.0216 21.1867C13.7014 21.8666 14.0833 22.7886 14.0833 23.75M14.0833 6.83333V23.75M14.0833 6.83333C14.0833 5.55145 14.5926 4.32208 15.499 3.41565C16.4054 2.50922 17.6348 2 18.9167 2H26.1667V20.125H17.7083C16.7469 20.125 15.8249 20.5069 15.1451 21.1867C14.4653 21.8666 14.0833 22.7886 14.0833 23.75" stroke="#FAEDCD" stroke-width="4" stroke-linecap="round" stroke-linejoin="round"/>
</svg>
