<svg width="22" height="27" viewBox="0 0 22 27" fill="none" xmlns="http://www.w3.org/2000/svg">
<path d="M21.05 10.925C21.05 18.8 10.925 25.55 10.925 25.55C10.925 25.55 0.800049 18.8 0.800049 10.925C0.800049 8.23973 1.86679 5.6644 3.76559 3.76559C5.6644 1.86679 8.23973 0.800049 10.925 0.800049C13.6104 0.800049 16.1857 1.86679 18.0845 3.76559C19.9833 5.6644 21.05 8.23973 21.05 10.925Z" stroke="#FAEDCD" stroke-width="1.6" stroke-linecap="round" stroke-linejoin="round"/>
<path d="M10.925 14.3C12.789 14.3 14.3 12.789 14.3 10.925C14.3 9.06109 12.789 7.55005 10.925 7.55005C9.06109 7.55005 7.55005 9.06109 7.55005 10.925C7.55005 12.789 9.06109 14.3 10.925 14.3Z" stroke="#FAEDCD" stroke-width="1.6" stroke-linecap="round" stroke-linejoin="round"/>
</svg>
